<?xml version="1.0" encoding="UTF-8"?>
<!DOCTYPE svg PUBLIC "-//W3C//DTD SVG 1.1//EN" "http://www.w3.org/Graphics/SVG/1.1/DTD/svg11.dtd">
<svg version="1.1" xmlns="http://www.w3.org/2000/svg" xmlns:xlink="http://www.w3.org/1999/xlink" x="0" y="0" width="284" height="107" viewBox="0, 0, 284, 107">
  <defs>
    <linearGradient id="Gradient_1" gradientUnits="userSpaceOnUse" x1="26.5" y1="-0" x2="26.5" y2="50.648" gradientTransform="matrix(1, 0, 0, 1, 20, 24)">
      <stop offset="0" stop-color="#3CCBD1"/>
      <stop offset="1" stop-color="#5561D9"/>
    </linearGradient>
    <linearGradient id="Gradient_2" gradientUnits="userSpaceOnUse" x1="26.5" y1="27.69" x2="26.5" y2="49.341" gradientTransform="matrix(1, 0, 0, 1, 20, 24)">
      <stop offset="0" stop-color="#C23CD1"/>
      <stop offset="1" stop-color="#FC4F4F"/>
    </linearGradient>
  </defs>
  <g id="2">
    <g id="Group-2">
      <path d="M46.869,87 C48.85,87 73,65.405 73,50.674 C73,35.942 61.136,24 46.5,24 C31.864,24 20,35.942 20,50.674 C20,65.405 44.889,87 46.869,87 z" fill="url(#Gradient_1)" id="path-2"/>
      <path d="M68.014,73.341 C68.014,85.298 58.382,94.991 46.5,94.991 C34.618,94.991 24.986,85.298 24.986,73.341 C24.986,61.383 34.618,51.69 46.5,51.69 C58.382,51.69 68.014,61.383 68.014,73.341 z" fill="url(#Gradient_2)" id="Oval" opacity="0.91"/>
      <g id="Combined-Shape">
        <path d="M48.439,68.788 L48.439,71.947 L49.546,71.947 C49.954,71.947 50.286,72.278 50.286,72.687 L50.286,73.437 C50.286,73.846 49.954,74.177 49.546,74.177 L43.639,74.177 C43.23,74.177 42.899,73.846 42.899,73.437 L42.899,72.687 C42.899,72.278 43.23,71.947 43.639,71.947 L45.115,71.947 L45.115,68.788 L48.439,68.788 z M47.697,45.929 C48.719,45.929 49.547,46.757 49.547,47.779 L49.546,65.627 L51.946,65.628 C52.355,65.628 52.686,65.96 52.686,66.368 L52.686,67.118 C52.686,67.527 52.355,67.858 51.946,67.858 L41.238,67.858 C40.83,67.858 40.498,67.527 40.498,67.118 L40.498,66.368 C40.498,65.96 40.83,65.628 41.238,65.628 L43.637,65.627 L43.638,47.779 C43.638,46.757 44.466,45.929 45.488,45.929 L47.697,45.929 z M46.592,30.504 C46.796,30.504 46.962,30.67 46.962,30.874 L46.963,39.547 C47.129,39.643 47.254,39.802 47.306,39.993 L48.368,43.879 C48.476,44.273 48.244,44.68 47.849,44.788 C47.786,44.805 47.72,44.814 47.654,44.814 L45.53,44.814 C45.122,44.814 44.79,44.483 44.79,44.074 C44.79,44.008 44.799,43.943 44.816,43.879 L45.879,39.993 C45.932,39.797 46.059,39.641 46.222,39.547 L46.223,30.874 C46.223,30.67 46.388,30.504 46.592,30.504 z" fill="#FFFFFF" id="path-6"/>
        <path d="M48.439,68.788 L48.439,71.947 L49.546,71.947 C49.954,71.947 50.286,72.278 50.286,72.687 L50.286,73.437 C50.286,73.846 49.954,74.177 49.546,74.177 L43.639,74.177 C43.23,74.177 42.899,73.846 42.899,73.437 L42.899,72.687 C42.899,72.278 43.23,71.947 43.639,71.947 L45.115,71.947 L45.115,68.788 L48.439,68.788 z M47.697,45.929 C48.719,45.929 49.547,46.757 49.547,47.779 L49.546,65.627 L51.946,65.628 C52.355,65.628 52.686,65.96 52.686,66.368 L52.686,67.118 C52.686,67.527 52.355,67.858 51.946,67.858 L41.238,67.858 C40.83,67.858 40.498,67.527 40.498,67.118 L40.498,66.368 C40.498,65.96 40.83,65.628 41.238,65.628 L43.637,65.627 L43.638,47.779 C43.638,46.757 44.466,45.929 45.488,45.929 L47.697,45.929 z M46.592,30.504 C46.796,30.504 46.962,30.67 46.962,30.874 L46.963,39.547 C47.129,39.643 47.254,39.802 47.306,39.993 L48.368,43.879 C48.476,44.273 48.244,44.68 47.849,44.788 C47.786,44.805 47.72,44.814 47.654,44.814 L45.53,44.814 C45.122,44.814 44.79,44.483 44.79,44.074 C44.79,44.008 44.799,43.943 44.816,43.879 L45.879,39.993 C45.932,39.797 46.059,39.641 46.222,39.547 L46.223,30.874 C46.223,30.67 46.388,30.504 46.592,30.504 z" fill="#000000" id="path-6"/>
      </g>
    </g>
    <text transform="matrix(1, 0, 0, 1, 178.279, 39)">
      <tspan x="-98.719" y="7" font-family="Arial-BoldMT" font-size="24" fill="#000000">Jag Vill Ha Vaccin!</tspan>
    </text>
    <text transform="matrix(1, 0, 0, 1, 178.279, 69.779)">
      <tspan x="-98.719" y="-4.5" font-family="Arial-BoldMT" font-size="12" fill="#000000">inspirerad av den franska</tspan>
      <tspan x="-98.719" y="11.5" font-family="Arial-BoldMT" font-size="14" fill="#000000">Vite Ma Dose</tspan>
    </text>
  </g>
</svg>
