<?xml version="1.0" encoding="UTF-8"?>
<!DOCTYPE svg PUBLIC "-//W3C//DTD SVG 1.1//EN" "http://www.w3.org/Graphics/SVG/1.1/DTD/svg11.dtd">
<svg version="1.1" xmlns="http://www.w3.org/2000/svg" xmlns:xlink="http://www.w3.org/1999/xlink" x="0" y="0" width="427" height="474" viewBox="0, 0, 427, 474">
  <defs>
    <linearGradient id="Gradient_1" gradientUnits="userSpaceOnUse" x1="143.5" y1="-0" x2="143.5" y2="272.535" gradientTransform="matrix(1, 0, 0, 1, 70, 30)">
      <stop offset="0" stop-color="#3CCBD1"/>
      <stop offset="1" stop-color="#5561D9"/>
    </linearGradient>
    <linearGradient id="Gradient_2" gradientUnits="userSpaceOnUse" x1="143.5" y1="149" x2="143.5" y2="265.5" gradientTransform="matrix(1, 0, 0, 1, 70, 30)">
      <stop offset="0" stop-color="#C23CD1"/>
      <stop offset="1" stop-color="#FC4F4F"/>
    </linearGradient>
  </defs>
  <g id="1-copy">
    <g id="Group-2">
      <path d="M215.5,369 C226.224,369 357,252.8 357,173.53 C357,94.261 292.753,30 213.5,30 C134.247,30 70,94.261 70,173.53 C70,252.8 204.775,369 215.5,369 z" fill="url(#Gradient_1)" id="path-2"/>
      <path d="M330,295.5 C330,359.841 277.841,412 213.5,412 C149.159,412 97,359.841 97,295.5 C97,231.159 149.159,179 213.5,179 C277.841,179 330,231.159 330,295.5 z" fill="url(#Gradient_2)" id="Oval" opacity="0.91"/>
      <g id="Combined-Shape">
        <path d="M224,271 L224,287.999 L230,288 C232.209,288 234,289.791 234,292 L234,296 C234,298.209 232.209,300 230,300 L224,299.999 L224,300 L206,300 L206,299.999 L198,300 C195.791,300 194,298.209 194,296 L194,292 C194,289.791 195.791,288 198,288 L206,287.999 L206,271 L224,271 z M220,148 C225.523,148 230,152.477 230,158 L230,254 L243,254 C245.209,254 247,255.791 247,258 L247,262 C247,264.209 245.209,266 243,266 L185,266 C182.791,266 181,264.209 181,262 L181,258 C181,255.791 182.791,254 185,254 L198,254 L198,158 C198,152.477 202.477,148 208,148 L220,148 z M214,65 C215.105,65 216,65.895 216,67 L216.001,113.622 C216.9,114.141 217.575,114.998 217.857,116.025 L223.608,136.939 C224.194,139.069 222.942,141.271 220.812,141.857 C220.467,141.952 220.11,142 219.752,142 L208.248,142 C206.039,142 204.248,140.209 204.248,138 C204.248,137.642 204.297,137.285 204.392,136.939 L210.143,116.025 C210.434,114.969 211.121,114.128 212,113.621 L212,67 C212,65.895 212.895,65 214,65 z" fill="#FFFFFF" id="path-6"/>
        <path d="M224,271 L224,287.999 L230,288 C232.209,288 234,289.791 234,292 L234,296 C234,298.209 232.209,300 230,300 L224,299.999 L224,300 L206,300 L206,299.999 L198,300 C195.791,300 194,298.209 194,296 L194,292 C194,289.791 195.791,288 198,288 L206,287.999 L206,271 L224,271 z M220,148 C225.523,148 230,152.477 230,158 L230,254 L243,254 C245.209,254 247,255.791 247,258 L247,262 C247,264.209 245.209,266 243,266 L185,266 C182.791,266 181,264.209 181,262 L181,258 C181,255.791 182.791,254 185,254 L198,254 L198,158 C198,152.477 202.477,148 208,148 L220,148 z M214,65 C215.105,65 216,65.895 216,67 L216.001,113.622 C216.9,114.141 217.575,114.998 217.857,116.025 L223.608,136.939 C224.194,139.069 222.942,141.271 220.812,141.857 C220.467,141.952 220.11,142 219.752,142 L208.248,142 C206.039,142 204.248,140.209 204.248,138 C204.248,137.642 204.297,137.285 204.392,136.939 L210.143,116.025 C210.434,114.969 211.121,114.128 212,113.621 L212,67 C212,65.895 212.895,65 214,65 z" fill="#000000" id="path-6"/>
      </g>
    </g>
    <text transform="matrix(1, 0, 0, 1, 213.5, 415.5)">
      <tspan x="-171.191" y="14" font-family="Helvetica-Bold" font-size="40" fill="#000000">Jag Vill Ha Vaccin!</tspan>
    </text>
  </g>
</svg>
